<?xml version="1.0" encoding="UTF-8" standalone="no"?>
<svg
   width="0.99em"
   height="1em"
   viewBox="0 0 256 259"
   version="1.1"
   id="svg4"
   sodipodi:docname="steam.svg"
   inkscape:version="1.2.2 (b0a8486541, 2022-12-01)"
   xmlns:inkscape="http://www.inkscape.org/namespaces/inkscape"
   xmlns:sodipodi="http://sodipodi.sourceforge.net/DTD/sodipodi-0.dtd"
   xmlns="http://www.w3.org/2000/svg"
   xmlns:svg="http://www.w3.org/2000/svg">
  <defs
     id="defs8" />
  <sodipodi:namedview
     id="namedview6"
     pagecolor="#ffffff"
     bordercolor="#000000"
     borderopacity="0.25"
     inkscape:showpageshadow="2"
     inkscape:pageopacity="0.0"
     inkscape:pagecheckerboard="0"
     inkscape:deskcolor="#d1d1d1"
     showgrid="false"
     inkscape:zoom="2.2223356"
     inkscape:cx="95.620122"
     inkscape:cy="150.74231"
     inkscape:window-width="1920"
     inkscape:window-height="1044"
     inkscape:window-x="0"
     inkscape:window-y="0"
     inkscape:window-maximized="1"
     inkscape:current-layer="svg4" />
  <circle
     style="fill:#ffffff;stroke-width:1.3377;fill-opacity:1"
     id="path843"
     cx="127.91096"
     cy="130.3101"
     r="127.78915" />
  <path
     fill="#1A1918"
     d="M127.779 0C60.42 0 5.24 52.412 0 119.014l68.724 28.674a35.812 35.812 0 0 1 20.426-6.366c.682 0 1.356.019 2.02.056l30.566-44.71v-.626c0-26.903 21.69-48.796 48.353-48.796c26.662 0 48.352 21.893 48.352 48.796c0 26.902-21.69 48.804-48.352 48.804c-.37 0-.73-.009-1.098-.018l-43.593 31.377c.028.582.046 1.163.046 1.735c0 20.204-16.283 36.636-36.294 36.636c-17.566 0-32.263-12.658-35.584-29.412L4.41 164.654c15.223 54.313 64.673 94.132 123.369 94.132c70.818 0 128.221-57.938 128.221-129.393C256 57.93 198.597 0 127.779 0ZM80.352 196.332l-15.749-6.568c2.787 5.867 7.621 10.775 14.033 13.47c13.857 5.83 29.836-.803 35.612-14.799a27.555 27.555 0 0 0 .046-21.035c-2.768-6.79-7.999-12.086-14.706-14.909c-6.67-2.795-13.811-2.694-20.085-.304l16.275 6.79c10.222 4.3 15.056 16.145 10.794 26.46c-4.253 10.314-15.998 15.195-26.22 10.895Zm121.957-100.29c0-17.925-14.457-32.52-32.217-32.52c-17.769 0-32.226 14.595-32.226 32.52c0 17.926 14.457 32.512 32.226 32.512c17.76 0 32.217-14.586 32.217-32.512Zm-56.37-.055c0-13.488 10.84-24.42 24.2-24.42c13.368 0 24.208 10.932 24.208 24.42c0 13.488-10.84 24.421-24.209 24.421c-13.359 0-24.2-10.933-24.2-24.42Z"
     id="path2" />
</svg>
