<?xml version="1.0" encoding="UTF-8" standalone="no"?>
<!-- Created with Inkscape (http://www.inkscape.org/) -->

<svg
   width="67.73336mm"
   height="68.470459mm"
   viewBox="0 0 67.73336 68.470459"
   version="1.1"
   id="svg516"
   xmlns="http://www.w3.org/2000/svg"
   xmlns:svg="http://www.w3.org/2000/svg">
  <defs
     id="defs513" />
  <g
     id="layer1"
     transform="translate(-71.396847,-114.26453)">
    <circle
       style="fill:#ffffff;fill-opacity:1;stroke-width:0.353933"
       id="path843"
       cx="105.23995"
       cy="148.74265"
       r="33.810879" />
    <path
       fill="#1a1918"
       d="m 105.20504,114.26477 c -17.822068,0 -32.421776,13.86734 -33.808193,31.48912 l 18.183225,7.58666 a 9.4752582,9.4752582 0 0 1 5.404379,-1.68433 c 0.180446,0 0.358775,0.005 0.534458,0.0148 l 8.087251,-11.82952 v -0.16563 c 0,-7.11808 5.73882,-12.91061 12.7934,-12.91061 7.05432,0 12.79313,5.79253 12.79313,12.91061 0,7.11782 -5.73881,12.91273 -12.79313,12.91273 -0.0979,0 -0.19314,-0.002 -0.29051,-0.005 l -11.53398,8.30184 c 0.007,0.15398 0.0122,0.30771 0.0122,0.45905 0,5.34564 -4.30821,9.69327 -9.602789,9.69327 -4.647671,0 -8.536252,-3.34909 -9.414933,-7.78192 l -13.005859,-5.42661 c 4.027753,14.37032 17.111398,24.90576 32.641381,24.90576 18.73726,0 33.92514,-15.32943 33.92514,-34.23523 0,-18.90792 -15.18788,-34.23523 -33.92514,-34.23523 z m -12.548393,51.94617 -4.166923,-1.73778 c 0.737394,1.55231 2.016389,2.85089 3.712898,3.56394 3.666331,1.54252 7.894108,-0.21246 9.422338,-3.91557 a 7.2905937,7.2905937 0 0 0 0.0122,-5.56551 c -0.73236,-1.79652 -2.116398,-3.19775 -3.890958,-3.94467 -1.764771,-0.73951 -3.654161,-0.71279 -5.314157,-0.0804 l 4.306094,1.79652 c 2.704571,1.13771 3.983571,4.2717 2.855913,7.00088 -1.125273,2.72891 -4.232804,4.02034 -6.937375,2.88263 z m 32.267793,-26.53506 c 0,-4.74265 -3.82509,-8.60425 -8.52409,-8.60425 -4.70138,0 -8.52646,3.8616 -8.52646,8.60425 0,4.74292 3.82508,8.60214 8.52646,8.60214 4.699,0 8.52409,-3.85922 8.52409,-8.60214 z m -14.91457,-0.0146 c 0,-3.5687 2.86809,-6.46112 6.40292,-6.46112 3.53695,0 6.40503,2.89242 6.40503,6.46112 0,3.5687 -2.86808,6.46139 -6.40529,6.46139 -3.53457,0 -6.40292,-2.89269 -6.40292,-6.46113 z"
       id="path2"
       style="stroke-width:0.264583" />
  </g>
</svg>
